<svg xmlns="http://www.w3.org/2000/svg" viewBox="0 0 64 64">
  <defs>
    <linearGradient id="grad" x1="0%" y1="0%" x2="100%" y2="100%">
      <stop offset="0%" stop-color="#27D3C9"></stop>
      <stop offset="40%" stop-color="#4C7DFF"></stop>
      <stop offset="75%" stop-color="#8A3DFF"></stop>
      <stop offset="100%" stop-color="#FF4DB8"></stop>
    </linearGradient>
  </defs>

  <!-- Main P -->
  <path fill="url(#grad)" d="
    M20 10
    H36
    C47 10 54 16 54 25
    C54 34 47 40 36 40
    H30
    L20 54
    C19 55.5 16.5 54.5 16.5 52.5
    V12
    C16.5 10.9 17.4 10 18.5 10
    Z
  "></path>

  <!-- Inner counter (hole of P) -->
  <path fill="#ffffff" d="
    M30 20
    V32
    H36
    C41 32 44 29.5 44 25.5
    C44 21.5 41 20 36 20
    Z
  "></path>

  <!-- Diagonal cut -->
  <path fill="#ffffff" d="
    M18 53
    L30 38
    H34
    L20 56
    C19 57.3 17 56.5 18 53
    Z
  "></path>
</svg>